<?xml version="1.0" standalone="no"?>
<!DOCTYPE svg PUBLIC "-//W3C//DTD SVG 20010904//EN"
 "http://www.w3.org/TR/2001/REC-SVG-20010904/DTD/svg10.dtd">
<svg version="1.0" xmlns="http://www.w3.org/2000/svg"
 width="260.000000pt" height="260.000000pt" viewBox="0 0 260.000000 260.000000"
 preserveAspectRatio="xMidYMid meet">
<metadata>
Created by potrace 1.14, written by Peter Selinger 2001-2017
</metadata>
<g transform="translate(0.000000,260.000000) scale(0.100000,-0.100000)"
fill="#000000" stroke="none">
<path d="M507 2254 c-229 -55 -424 -258 -473 -494 -22 -106 -14 -388 15 -520
108 -488 359 -910 541 -910 86 0 141 55 266 266 135 229 200 305 306 361 46
24 64 28 138 28 175 0 261 -76 457 -410 76 -129 138 -207 184 -230 46 -24 109
-19 160 13 170 109 362 485 450 882 29 132 37 414 15 520 -31 146 -127 298
-245 384 -116 85 -238 126 -381 126 -103 0 -178 -17 -288 -64 -117 -50 -182
-66 -302 -72 -140 -8 -258 13 -398 70 -59 24 -131 49 -160 55 -71 15 -214 13
-285 -5z m1586 -290 c59 -19 148 -99 176 -157 46 -95 46 -210 -1 -300 -26 -52
-95 -118 -147 -141 -40 -19 -41 -20 -41 -68 0 -86 -35 -128 -105 -128 -27 0
-44 8 -67 30 l-30 30 4 114 c3 111 4 116 32 145 18 18 51 37 82 46 71 21 104
60 104 125 0 142 -188 171 -239 37 -6 -16 -11 -40 -11 -53 0 -36 -51 -84 -89
-84 -106 0 -139 100 -77 235 71 156 238 225 409 169z m-1381 -123 l33 -29 3
-136 4 -136 130 0 130 0 34 -34 c36 -36 42 -67 22 -111 -20 -45 -54 -55 -193
-55 l-125 0 0 -119 c0 -66 -4 -131 -9 -144 -26 -69 -104 -89 -160 -41 l-31 26
0 139 0 139 -135 0 c-134 0 -135 0 -167 29 -27 24 -33 36 -33 71 0 35 6 47 33
71 32 29 33 29 167 29 l135 0 0 136 0 136 29 29 c40 40 89 40 133 0z m1318
-786 c89 -46 54 -185 -47 -185 -96 1 -136 112 -62 174 35 30 67 33 109 11z"/>
</g>
</svg>
